<svg width="30" height="30" viewBox="0 0 30 30" fill="none" xmlns="http://www.w3.org/2000/svg">
<path d="M1 6.6C1 3.50721 3.50721 1 6.6 1H23.4C26.4928 1 29 3.50721 29 6.6V23.4C29 26.4928 26.4928 29 23.4 29H6.6C3.50721 29 1 26.4928 1 23.4V6.6Z" stroke="#FCFCFF" stroke-width="2" stroke-linecap="round" stroke-linejoin="round"/>
<path d="M20.5999 14.1184C20.7727 15.2836 20.5737 16.4735 20.0312 17.519C19.4887 18.5646 18.6303 19.4124 17.5782 19.942C16.5261 20.4715 15.3338 20.6559 14.1708 20.4687C13.0079 20.2816 11.9336 19.7325 11.1007 18.8996C10.2678 18.0668 9.71876 16.9924 9.53163 15.8295C9.3445 14.6666 9.52882 13.4743 10.0584 12.4221C10.588 11.37 11.4358 10.5117 12.4813 9.96916C13.5268 9.42666 14.7168 9.22765 15.8819 9.40042C17.0704 9.57666 18.1707 10.1305 19.0203 10.9801C19.8699 11.8296 20.4237 12.9299 20.5999 14.1184Z" stroke="#FCFCFF" stroke-width="2" stroke-linecap="round" stroke-linejoin="round"/>
<path d="M23.3924 6.00268C23.414 5.85704 23.3891 5.70829 23.3213 5.5776C23.2535 5.44691 23.1462 5.34093 23.0147 5.27474C22.8832 5.20854 22.7342 5.1855 22.5888 5.20889C22.4434 5.23228 22.3091 5.30091 22.205 5.40503C22.1009 5.50914 22.0323 5.64343 22.0089 5.78879C21.9855 5.93416 22.0085 6.0832 22.0747 6.21471C22.1409 6.34623 22.2469 6.45352 22.3776 6.52134C22.5083 6.58915 22.657 6.61402 22.8027 6.59243C22.9512 6.5704 23.0888 6.50117 23.195 6.39497C23.3012 6.28878 23.3704 6.15124 23.3924 6.00268Z" stroke="#FCFCFF" stroke-width="2" stroke-linecap="round" stroke-linejoin="round"/>
</svg>
