<svg width="36" height="30" viewBox="0 0 36 30" fill="none" xmlns="http://www.w3.org/2000/svg">
<path d="M34.3337 1.01569C32.9117 2.06973 31.3374 2.8759 29.6712 3.40316C28.777 2.32257 27.5885 1.55668 26.2665 1.20907C24.9446 0.861458 23.5529 0.948898 22.2798 1.45956C21.0066 1.97023 19.9135 2.87948 19.1481 4.06434C18.3827 5.24921 17.9821 6.65252 18.0003 8.08447V9.64491C15.3909 9.71602 12.8052 9.10783 10.4736 7.87451C8.14204 6.64119 6.13686 4.82103 4.63669 2.57613C4.63669 2.57613 -1.3027 16.6201 12.0609 22.8618C9.00293 25.0433 5.36004 26.1371 1.66699 25.9827C15.0306 33.7849 31.364 25.9827 31.364 8.03766C31.3626 7.60301 31.3228 7.16943 31.2452 6.7425C32.7606 5.17191 33.83 3.18893 34.3337 1.01569Z" stroke="#FCFCFF" stroke-width="2" stroke-linecap="round" stroke-linejoin="round"/>
</svg>
